<svg width="26" height="26" viewBox="0 0 26 26" fill="none" xmlns="http://www.w3.org/2000/svg">
<path opacity="0.4" d="M13.0026 2.16927C7.01952 2.16927 2.16927 7.01952 2.16927 13.0026C2.16927 18.9857 7.01952 23.8359 13.0026 23.8359C18.9857 23.8359 23.8359 18.9857 23.8359 13.0026C23.8359 7.01952 18.9857 2.16927 13.0026 2.16927Z" fill="white"/>
<path d="M13 11.1068C12.5558 11.1068 12.1875 11.4751 12.1875 11.9193L12.1875 17.3359C12.1875 17.7801 12.5558 18.1484 13 18.1484C13.4442 18.1484 13.8125 17.7801 13.8125 17.3359L13.8125 11.9193C13.8125 11.4751 13.4442 11.1068 13 11.1068Z" fill="white"/>
<path d="M12.0059 9.07594C12.0601 9.20594 12.1359 9.3251 12.2334 9.43344C12.3418 9.53094 12.4609 9.60677 12.5909 9.66094C12.8509 9.76927 13.1543 9.76927 13.4143 9.66094C13.5443 9.60677 13.6634 9.53094 13.7718 9.43344C13.8693 9.3251 13.9451 9.20594 13.9993 9.07594C14.0534 8.94594 14.0859 8.8051 14.0859 8.66427C14.0859 8.52344 14.0534 8.3826 13.9993 8.2526C13.9451 8.11177 13.8693 8.00344 13.7718 7.8951C13.6634 7.7976 13.5443 7.72177 13.4143 7.6676C13.2843 7.61344 13.1434 7.58094 13.0026 7.58094C12.8618 7.58094 12.7209 7.61344 12.5909 7.6676C12.4609 7.72177 12.3418 7.7976 12.2334 7.8951C12.1359 8.00344 12.0601 8.11177 12.0059 8.2526C11.9518 8.3826 11.9193 8.52344 11.9193 8.66427C11.9193 8.8051 11.9518 8.94594 12.0059 9.07594Z" fill="white"/>
</svg>
