<svg width="26" height="26" viewBox="0 0 26 26" fill="none" xmlns="http://www.w3.org/2000/svg">
<path d="M11.9167 19.5V22.75C11.9167 23.3458 11.4292 23.8333 10.8333 23.8333C10.2375 23.8333 9.75 23.3458 9.75 22.75V19.5H11.9167Z" fill="white"/>
<path d="M16.2526 19.5V22.75C16.2526 23.3458 15.7651 23.8333 15.1693 23.8333C14.5734 23.8333 14.0859 23.3458 14.0859 22.75V19.5H16.2526Z" fill="white"/>
<path opacity="0.4" d="M18.4193 11.9167V17.3333C18.4193 18.525 17.4443 19.5 16.2526 19.5H9.7526C8.56094 19.5 7.58594 18.525 7.58594 17.3333V11.9167C7.58594 10.725 8.56094 9.75 9.7526 9.75H16.2526C17.4443 9.75 18.4193 10.725 18.4193 11.9167Z" fill="white"/>
<path d="M5.41667 11.9115V16.2448C5.41667 16.8406 4.92917 17.3281 4.33333 17.3281C3.7375 17.3281 3.25 16.8406 3.25 16.2448V11.9115C3.25 11.3156 3.7375 10.8281 4.33333 10.8281C4.92917 10.8281 5.41667 11.3156 5.41667 11.9115Z" fill="white"/>
<path d="M22.7526 11.9115V16.2448C22.7526 16.8406 22.2651 17.3281 21.6693 17.3281C21.0734 17.3281 20.5859 16.8406 20.5859 16.2448V11.9115C20.5859 11.3156 21.0734 10.8281 21.6693 10.8281C22.2651 10.8281 22.7526 11.3156 22.7526 11.9115Z" fill="white"/>
<path opacity="0.4" d="M10.3974 8.23073H15.5974C16.5508 8.23073 17.3307 7.45073 17.3307 6.4974C17.3307 4.10323 15.3916 2.16406 12.9974 2.16406C10.6032 2.16406 8.66406 4.10323 8.66406 6.4974C8.66406 7.45073 9.44404 8.23073 10.3974 8.23073Z" fill="white"/>
</svg>
