<svg width="62" height="62" viewBox="0 0 62 62" fill="none" xmlns="http://www.w3.org/2000/svg">
<rect width="62" height="62" rx="13" fill="#3164BD"/>
<path d="M45.1241 39.9675C45.1241 40.4775 45.0108 41.0017 44.77 41.5117C44.5291 42.0217 44.2175 42.5033 43.8066 42.9567C43.1125 43.7217 42.3475 44.2742 41.4833 44.6283C40.6333 44.9825 39.7125 45.1667 38.7208 45.1667C37.2758 45.1667 35.7316 44.8267 34.1025 44.1325C32.4733 43.4383 30.8441 42.5033 29.2291 41.3275C27.6 40.1375 26.0558 38.82 24.5825 37.3608C23.1233 35.8875 21.8058 34.3433 20.63 32.7283C19.4683 31.1133 18.5333 29.4983 17.8533 27.8975C17.1733 26.2825 16.8333 24.7383 16.8333 23.265C16.8333 22.3017 17.0033 21.3808 17.3433 20.5308C17.6833 19.6667 18.2216 18.8733 18.9725 18.165C19.8791 17.2725 20.8708 16.8333 21.9191 16.8333C22.3158 16.8333 22.7125 16.9183 23.0666 17.0883C23.435 17.2583 23.7608 17.5133 24.0158 17.8817L27.3025 22.5142C27.5575 22.8683 27.7416 23.1942 27.8691 23.5058C27.9966 23.8033 28.0675 24.1008 28.0675 24.37C28.0675 24.71 27.9683 25.05 27.77 25.3758C27.5858 25.7017 27.3166 26.0417 26.9766 26.3817L25.9 27.5008C25.7441 27.6567 25.6733 27.8408 25.6733 28.0675C25.6733 28.1808 25.6875 28.28 25.7158 28.3933C25.7583 28.5067 25.8008 28.5917 25.8291 28.6767C26.0841 29.1442 26.5233 29.7533 27.1466 30.49C27.7841 31.2267 28.4641 31.9775 29.2008 32.7283C29.9658 33.4792 30.7025 34.1733 31.4533 34.8108C32.19 35.4342 32.7991 35.8592 33.2808 36.1142C33.3516 36.1425 33.4366 36.185 33.5358 36.2275C33.6491 36.27 33.7625 36.2842 33.89 36.2842C34.1308 36.2842 34.315 36.1992 34.4708 36.0433L35.5475 34.9808C35.9016 34.6267 36.2416 34.3575 36.5675 34.1875C36.8933 33.9892 37.2191 33.89 37.5733 33.89C37.8425 33.89 38.1258 33.9467 38.4375 34.0742C38.7491 34.2017 39.075 34.3858 39.4291 34.6267L44.1183 37.9558C44.4866 38.2108 44.7416 38.5083 44.8975 38.8625C45.0391 39.2167 45.1241 39.5708 45.1241 39.9675Z" stroke="white" stroke-width="2" stroke-miterlimit="10"/>
</svg>
