<svg width="26" height="26" viewBox="0 0 26 26" fill="none" xmlns="http://www.w3.org/2000/svg">
<path d="M23.2943 11.8057V4.43906C23.2943 2.81406 22.6009 2.16406 20.8784 2.16406H16.5018C14.7793 2.16406 14.0859 2.81406 14.0859 4.43906V11.8057C14.0859 13.4307 14.7793 14.0807 16.5018 14.0807H20.8784C22.6009 14.0807 23.2943 13.4307 23.2943 11.8057Z" fill="white"/>
<path d="M11.9193 14.1891V21.5557C11.9193 23.1807 11.2259 23.8307 9.50344 23.8307H5.12677C3.40427 23.8307 2.71094 23.1807 2.71094 21.5557V14.1891C2.71094 12.5641 3.40427 11.9141 5.12677 11.9141H9.50344C11.2259 11.9141 11.9193 12.5641 11.9193 14.1891Z" fill="white"/>
<path opacity="0.4" d="M23.2943 21.5583V18.525C23.2943 16.9 22.6009 16.25 20.8784 16.25H16.5018C14.7793 16.25 14.0859 16.9 14.0859 18.525V21.5583C14.0859 23.1833 14.7793 23.8333 16.5018 23.8333H20.8784C22.6009 23.8333 23.2943 23.1833 23.2943 21.5583Z" fill="white"/>
<path opacity="0.4" d="M11.9193 7.4724V4.43906C11.9193 2.81406 11.2259 2.16406 9.50344 2.16406H5.12677C3.40427 2.16406 2.71094 2.81406 2.71094 4.43906V7.4724C2.71094 9.0974 3.40427 9.7474 5.12677 9.7474H9.50344C11.2259 9.7474 11.9193 9.0974 11.9193 7.4724Z" fill="white"/>
</svg>
