<svg width="26" height="26" viewBox="0 0 26 26" fill="none" xmlns="http://www.w3.org/2000/svg">
<path d="M23.8333 11.8057V4.43906C23.8333 2.81406 23.14 2.16406 21.4175 2.16406H17.0408C15.3183 2.16406 14.625 2.81406 14.625 4.43906V11.8057C14.625 13.4307 15.3183 14.0807 17.0408 14.0807H21.4175C23.14 14.0807 23.8333 13.4307 23.8333 11.8057Z" stroke="#AFB0B6" stroke-width="1.5" stroke-linecap="round" stroke-linejoin="round"/>
<path opacity="0.4" d="M23.8333 21.5609V19.6109C23.8333 17.9859 23.14 17.3359 21.4175 17.3359H17.0408C15.3183 17.3359 14.625 17.9859 14.625 19.6109V21.5609C14.625 23.1859 15.3183 23.8359 17.0408 23.8359H21.4175C23.14 23.8359 23.8333 23.1859 23.8333 21.5609Z" stroke="#AFB0B6" stroke-width="1.5" stroke-linecap="round" stroke-linejoin="round"/>
<path d="M11.3724 14.1891V21.5557C11.3724 23.1807 10.6791 23.8307 8.95656 23.8307H4.5799C2.8574 23.8307 2.16406 23.1807 2.16406 21.5557V14.1891C2.16406 12.5641 2.8574 11.9141 4.5799 11.9141H8.95656C10.6791 11.9141 11.3724 12.5641 11.3724 14.1891Z" stroke="#AFB0B6" stroke-width="1.5" stroke-linecap="round" stroke-linejoin="round"/>
<path opacity="0.4" d="M11.3724 4.43906V6.38906C11.3724 8.01406 10.6791 8.66406 8.95656 8.66406H4.5799C2.8574 8.66406 2.16406 8.01406 2.16406 6.38906V4.43906C2.16406 2.81406 2.8574 2.16406 4.5799 2.16406H8.95656C10.6791 2.16406 11.3724 2.81406 11.3724 4.43906Z" stroke="#AFB0B6" stroke-width="1.5" stroke-linecap="round" stroke-linejoin="round"/>
</svg>
