<svg width="24" height="24" viewBox="0 0 24 24" fill="none" xmlns="http://www.w3.org/2000/svg">
<path opacity="0.4" d="M16.7722 18.9791H7.23219C6.81219 18.9791 6.43219 18.7091 6.29219 18.3191L2.13219 6.66906C1.80219 5.73906 2.86219 4.94906 3.65219 5.51906L7.65219 8.37906C8.18219 8.75906 8.94219 8.52906 9.17219 7.91906L11.0622 2.87906C11.3822 2.00906 12.6122 2.00906 12.9322 2.87906L14.8222 7.91906C15.0522 8.53906 15.8022 8.75906 16.3422 8.37906L20.3422 5.51906C21.1422 4.94906 22.1922 5.74906 21.8622 6.66906L17.7022 18.3191C17.5722 18.7091 17.1922 18.9791 16.7722 18.9791Z" fill="white"/>
<path d="M17 22H7C6.59 22 6.25 21.66 6.25 21.25C6.25 20.84 6.59 20.5 7 20.5H17C17.41 20.5 17.75 20.84 17.75 21.25C17.75 21.66 17.41 22 17 22Z" fill="white"/>
<path d="M14.5 14.75H9.5C9.09 14.75 8.75 14.41 8.75 14C8.75 13.59 9.09 13.25 9.5 13.25H14.5C14.91 13.25 15.25 13.59 15.25 14C15.25 14.41 14.91 14.75 14.5 14.75Z" fill="white"/>
</svg>
