<svg width="26" height="26" viewBox="0 0 26 26" fill="none" xmlns="http://www.w3.org/2000/svg">
<path d="M14.0959 3.16562L20.4876 6.00396C22.3293 6.81646 22.3293 8.15979 20.4876 8.97229L14.0959 11.8106C13.3701 12.1356 12.1784 12.1356 11.4526 11.8106L5.06094 8.97229C3.21927 8.15979 3.21927 6.81646 5.06094 6.00396L11.4526 3.16562C12.1784 2.84063 13.3701 2.84063 14.0959 3.16562Z" stroke="white" stroke-width="1.5" stroke-linecap="round" stroke-linejoin="round"/>
<path opacity="0.4" d="M3.25 11.9141C3.25 12.8241 3.9325 13.8749 4.76667 14.2432L12.1225 17.5149C12.6858 17.7641 13.325 17.7641 13.8775 17.5149L21.2333 14.2432C22.0675 13.8749 22.75 12.8241 22.75 11.9141" stroke="white" stroke-width="1.5" stroke-linecap="round" stroke-linejoin="round"/>
<path opacity="0.4" d="M3.25 17.3359C3.25 18.3434 3.84583 19.2534 4.76667 19.6651L12.1225 22.9368C12.6858 23.1859 13.325 23.1859 13.8775 22.9368L21.2333 19.6651C22.1542 19.2534 22.75 18.3434 22.75 17.3359" stroke="white" stroke-width="1.5" stroke-linecap="round" stroke-linejoin="round"/>
</svg>
