<svg width="26" height="26" viewBox="0 0 26 26" fill="none" xmlns="http://www.w3.org/2000/svg">
<path opacity="0.4" d="M18.9892 8.4149C18.9133 8.40407 18.8375 8.40407 18.7617 8.4149C17.0825 8.36073 15.75 6.9849 15.75 5.2949C15.75 3.5724 17.1475 2.16406 18.8808 2.16406C20.6033 2.16406 22.0117 3.56156 22.0117 5.2949C22.0008 6.9849 20.6683 8.36073 18.9892 8.4149Z" fill="white"/>
<path opacity="0.4" d="M22.5235 15.9274C21.3102 16.7399 19.6094 17.0432 18.0385 16.8374C18.4502 15.949 18.6669 14.9632 18.6777 13.9232C18.6777 12.8399 18.4394 11.8107 17.9844 10.9116C19.5877 10.6949 21.2885 10.9982 22.5127 11.8107C24.2244 12.9374 24.2244 14.7899 22.5235 15.9274Z" fill="white"/>
<path opacity="0.4" d="M6.97562 8.4149C7.05146 8.40407 7.12729 8.40407 7.20312 8.4149C8.88229 8.36073 10.2148 6.9849 10.2148 5.2949C10.2148 3.5724 8.81729 2.16406 7.08396 2.16406C5.36146 2.16406 3.95312 3.56156 3.95312 5.2949C3.96396 6.9849 5.29646 8.36073 6.97562 8.4149Z" fill="white"/>
<path opacity="0.4" d="M7.09864 13.9234C7.09864 14.9743 7.32614 15.9709 7.73781 16.8701C6.21031 17.0326 4.61781 16.7076 3.44781 15.9384C1.73615 14.8009 1.73615 12.9484 3.44781 11.8109C4.60698 11.0309 6.24281 10.7168 7.78115 10.8901C7.33698 11.8001 7.09864 12.8293 7.09864 13.9234Z" fill="white"/>
<path d="M13.1331 17.1925C13.0465 17.1817 12.949 17.1817 12.8515 17.1925C10.8581 17.1275 9.26562 15.4917 9.26562 13.4767C9.26562 11.4183 10.9231 9.75 12.9923 9.75C15.0506 9.75 16.719 11.4183 16.719 13.4767C16.719 15.4917 15.1373 17.1275 13.1331 17.1925Z" fill="white"/>
<path d="M9.60969 19.4344C7.97385 20.5285 7.97385 22.3269 9.60969 23.4102C11.473 24.656 14.528 24.656 16.3914 23.4102C18.0272 22.316 18.0272 20.5177 16.3914 19.4344C14.5389 18.1885 11.4839 18.1885 9.60969 19.4344Z" fill="white"/>
</svg>
