<svg width="26" height="26" viewBox="0 0 26 26" fill="none" xmlns="http://www.w3.org/2000/svg">
<path opacity="0.34" d="M13 16.25C14.7949 16.25 16.25 14.7949 16.25 13C16.25 11.2051 14.7949 9.75 13 9.75C11.2051 9.75 9.75 11.2051 9.75 13C9.75 14.7949 11.2051 16.25 13 16.25Z" stroke="#AFB0B6" stroke-width="1.5" stroke-miterlimit="10" stroke-linecap="round" stroke-linejoin="round"/>
<path d="M2.16406 13.9522V12.0456C2.16406 10.9189 3.0849 9.98725 4.2224 9.98725C6.18323 9.98725 6.9849 8.60058 5.99906 6.89975C5.43573 5.92475 5.77156 4.65725 6.7574 4.09391L8.63156 3.02141C9.4874 2.51225 10.5924 2.81558 11.1016 3.67141L11.2207 3.87725C12.1957 5.57808 13.7991 5.57808 14.7849 3.87725L14.9041 3.67141C15.4132 2.81558 16.5182 2.51225 17.3741 3.02141L19.2482 4.09391C20.2341 4.65725 20.5699 5.92475 20.0066 6.89975C19.0207 8.60058 19.8224 9.98725 21.7832 9.98725C22.9099 9.98725 23.8416 10.9081 23.8416 12.0456V13.9522C23.8416 15.0789 22.9207 16.0106 21.7832 16.0106C19.8224 16.0106 19.0207 17.3972 20.0066 19.0981C20.5699 20.0839 20.2341 21.3406 19.2482 21.9039L17.3741 22.9764C16.5182 23.4856 15.4132 23.1822 14.9041 22.3264L14.7849 22.1206C13.8099 20.4197 12.2066 20.4197 11.2207 22.1206L11.1016 22.3264C10.5924 23.1822 9.4874 23.4856 8.63156 22.9764L6.7574 21.9039C5.77156 21.3406 5.43573 20.0731 5.99906 19.0981C6.9849 17.3972 6.18323 16.0106 4.2224 16.0106C3.0849 16.0106 2.16406 15.0789 2.16406 13.9522Z" stroke="#AFB0B6" stroke-width="1.5" stroke-miterlimit="10" stroke-linecap="round" stroke-linejoin="round"/>
</svg>
