<svg width="24" height="24" viewBox="0 0 24 24" fill="none" xmlns="http://www.w3.org/2000/svg">
<path d="M8.29938 18.0363V16.8763C5.99938 15.4863 4.10938 12.7763 4.10938 9.89627C4.10938 4.94627 8.65938 1.06627 13.7994 2.18627C16.0594 2.68627 18.0394 4.18627 19.0694 6.25627C21.1594 10.4563 18.9594 14.9163 15.7294 16.8663V18.0263C15.7294 18.3163 15.8394 18.9863 14.7694 18.9863H9.25938C8.15938 18.9963 8.29938 18.5663 8.29938 18.0363Z" fill="#AFB0B6"/>
<path d="M12.0001 7.89062L10.9301 9.75063C10.6901 10.1606 10.8901 10.5006 11.3601 10.5006H12.6301C13.1101 10.5006 13.3001 10.8406 13.0601 11.2506L12.0001 13.1106" stroke="white" stroke-width="1.5" stroke-linecap="round" stroke-linejoin="round"/>
<path d="M8.5 22.0031C10.79 21.3531 13.21 21.3531 15.5 22.0031" stroke="white" stroke-width="1.5" stroke-linecap="round" stroke-linejoin="round"/>
</svg>
