<svg width="26" height="26" viewBox="0 0 26 26" fill="none" xmlns="http://www.w3.org/2000/svg">
<path d="M15.7083 3.25C14.1281 3.25 12.6126 3.87777 11.4951 4.99506C10.3778 6.11247 9.75 7.62798 9.75 9.20833C9.75 10.7887 10.3778 12.304 11.4951 13.4216C12.6125 14.5389 14.128 15.1667 15.7083 15.1667C17.2887 15.1667 18.804 14.5389 19.9216 13.4216C21.0389 12.3042 21.6667 10.7887 21.6667 9.20833C21.6667 7.62798 21.0389 6.11264 19.9216 4.99506C18.8042 3.87777 17.2887 3.25 15.7083 3.25ZM15.7083 14.2497C14.3712 14.2497 13.0888 13.7185 12.1436 12.7731C11.1982 11.8277 10.667 10.5453 10.667 9.20833C10.667 7.87138 11.1982 6.58883 12.1436 5.64358C13.089 4.69816 14.3714 4.16697 15.7083 4.16697C17.0453 4.16697 18.3278 4.6982 19.2731 5.64358C20.2185 6.589 20.7497 7.87138 20.7497 9.20833C20.7497 10.5453 20.2185 11.8278 19.2731 12.7731C18.3277 13.7185 17.0453 14.2497 15.7083 14.2497Z" fill="white"/>
<path d="M19.0854 16.1016H13.2968C12.9603 16.1016 12.6874 16.3637 12.6874 16.687C12.6874 17.0103 12.9603 17.2724 13.2968 17.2724H19.0854C19.7319 17.2724 20.3519 17.5191 20.8089 17.9583C21.2661 18.3974 21.5228 18.9931 21.5228 19.6142V19.9069C21.5228 20.0622 21.4585 20.2111 21.3443 20.3208C21.23 20.4306 21.0751 20.4923 20.9134 20.4923H12.0781C11.7416 20.4923 11.4688 20.7545 11.4688 21.0778C11.4688 21.401 11.7416 21.6632 12.0781 21.6632H20.9134C21.3983 21.6632 21.8631 21.4781 22.2061 21.1488C22.5488 20.8193 22.7414 20.3727 22.7414 19.9069V19.6142C22.7414 18.6826 22.3562 17.7891 21.6707 17.1303C20.985 16.4717 20.055 16.1016 19.0854 16.1016Z" fill="white" fill-opacity="0.4" stroke="#323444" stroke-width="0.3"/>
<path d="M11.73 16.9087C11.6349 16.6266 11.4103 16.4022 11.1206 16.2998L9.53644 15.7144L8.2904 14.3679C8.09488 14.1539 7.81281 14.0312 7.5165 14.0312C7.22019 14.0312 6.93811 14.1539 6.7426 14.3679L5.49656 15.7144L3.91237 16.2998C3.62267 16.4022 3.39809 16.6267 3.30304 16.9087C3.20562 17.1809 3.2437 17.481 3.40658 17.7225L4.46987 19.3676V20.6907V20.6906C4.47004 20.999 4.6256 21.2881 4.88725 21.4663C5.06407 21.5906 5.27761 21.6573 5.49659 21.6566C5.60013 21.6568 5.70299 21.6409 5.80125 21.6098L7.51653 21.1063L9.21057 21.6098C9.5217 21.7024 9.86003 21.6493 10.1246 21.4663C10.3944 21.2925 10.5583 21.0027 10.5632 20.6906V19.3675L11.6204 17.7312C11.7873 17.4881 11.8278 17.1845 11.73 16.9087L11.73 16.9087ZM9.48761 18.8085C9.39597 18.9467 9.34633 19.1069 9.34446 19.2709V20.4214L7.87605 19.9882C7.64177 19.9186 7.39115 19.9186 7.1569 19.9882L5.68849 20.4214V19.2739C5.68883 19.1119 5.64004 18.9533 5.5484 18.8174L4.57355 17.3128L5.99317 16.7976C6.1336 16.7476 6.25924 16.6651 6.3587 16.5575L7.51652 15.3048L8.67125 16.5547V16.5546C8.77037 16.6633 8.89602 16.7468 9.03679 16.7976L10.4596 17.3128L9.48761 18.8085Z" fill="white" stroke="#323444" stroke-width="0.3"/>
</svg>
